<svg xmlns="http://www.w3.org/2000/svg" viewBox="0 0 60 75" x="0px" y="0px"><title>dinar_algerian_currency_DZD</title><circle cx="32" cy="29" r="1"/><path d="M37.31,30H35a1,1,0,0,1,0-2h2.31a.65.65,0,0,0,.56-.37,1,1,0,0,0,0-1l-2.78-4.08a1,1,0,0,1,1.66-1.12l2.8,4.12a3,3,0,0,1,.08,3.05A2.65,2.65,0,0,1,37.31,30Z"/><path d="M29,35H27a5,5,0,0,1-4-8H21a1,1,0,0,1,0-2h6a1,1,0,0,1,0,2,3,3,0,0,0,0,6h2a1,1,0,0,1,0,2Z"/><circle cx="28" cy="30" r="1"/><path d="M30,47A20,20,0,1,1,50,27,20,20,0,0,1,30,47ZM30,9A18,18,0,1,0,48,27,18,18,0,0,0,30,9Z"/><path d="M30,2A25,25,0,0,0,5,27v6A25,25,0,0,0,23,57h0a24.74,24.74,0,0,0,7,1A25,25,0,0,0,55,33V27A25,25,0,0,0,30,2Zm0,2A23,23,0,1,1,7,27,23,23,0,0,1,30,4ZM29,52v4a22.92,22.92,0,0,1-4-.52v-4A25.12,25.12,0,0,0,29,52Zm2,0a25.12,25.12,0,0,0,4-.47v4A22.92,22.92,0,0,1,31,56Zm6-1a25.13,25.13,0,0,0,4-1.56v3.75a22.54,22.54,0,0,1-4,1.72ZM11,43.22v2.72A22.84,22.84,0,0,1,7.55,38,24.8,24.8,0,0,0,11,43.22Zm2,5.26V45.31a25.25,25.25,0,0,0,4,3V52A23.74,23.74,0,0,1,13,48.48Zm6,4.71V49.44A25,25,0,0,0,23,51h0v3.91A22.54,22.54,0,0,1,19,53.19ZM43,52V48.35a25.25,25.25,0,0,0,4-3v3.17A23.74,23.74,0,0,1,43,52Zm6-6V43.22A24.8,24.8,0,0,0,52.45,38,22.84,22.84,0,0,1,49,45.94Z"/></svg>